<svg id="a4b1245f-fd64-4114-b9d5-89f6fc4152d0" data-name="Layer 1" xmlns="http://www.w3.org/2000/svg" width="865.76" height="682.89" viewBox="0 0 865.76 682.89"><rect x="177" y="39.96" width="429.41" height="280.98" fill="#0071f2"/><rect x="181.3" y="44.84" width="420.22" height="270.8" fill="#fff"/><rect x="330.4" y="124.65" width="63.6" height="79.2" fill="#0071f2" opacity="0.29"/><polygon points="378.23 139.78 388.54 140.01 382.6 145.83 378.23 144.65 378.23 139.78" fill="#0071f2"/><polygon points="378.23 139.78 388.54 140.01 382.6 145.83 378.23 144.65 378.23 139.78" opacity="0.2"/><rect x="415.1" y="124.65" width="63.6" height="79.2" fill="#0071f2" opacity="0.29"/><rect x="498.25" y="124.5" width="63.6" height="79.2" fill="#0071f2" opacity="0.29"/><path d="M215.81,108.33V79.51H218l4.94,14.58c1.15,3.38,2,6.41,2.77,9.36l.05,0c-.19-3.85-.23-7.35-.23-11.84V79.51h1.87v28.82h-2L220.48,93.7c-1.08-3.2-2.11-6.5-2.88-9.62l-.07,0c.11,3.63.16,7.09.16,11.88v12.32Z" fill="#2f2e41"/><path d="M238.84,94.82h-6v10.39h6.68v3.12h-8.67V79.51h8.33v3.12h-6.34v9.11h6Z" fill="#2f2e41"/><path d="M244.83,108.33l-3.91-28.82H243l1.83,14.58c.46,3.59.87,7.18,1.14,10h.05c.25-2.86.73-6.28,1.25-10l2.06-14.54h2.08l1.88,14.62c.43,3.42.85,6.84,1.07,9.88h.05c.32-3.16.75-6.37,1.24-10l2-14.54h2l-4.37,28.82H253.3l-2-15c-.48-3.68-.8-6.5-1-9.41h0c-.27,2.87-.62,5.69-1.19,9.41l-2.19,15Z" fill="#2f2e41"/><path d="M266.52,79.85a12.61,12.61,0,0,1,3.82-.56,4.74,4.74,0,0,1,4.32,2.4,11.8,11.8,0,0,1,1.35,6,13.46,13.46,0,0,1-1.19,6.16A5.21,5.21,0,0,1,270.11,97a3.67,3.67,0,0,1-1.6-.26v11.55h-2Zm2,13.9a3.76,3.76,0,0,0,1.64.3c2.4,0,3.87-2.18,3.87-6.16,0-3.81-1.44-5.65-3.64-5.65a4.62,4.62,0,0,0-1.87.3Z" fill="#2f2e41"/><path d="M278.68,79.89a11.6,11.6,0,0,1,3.82-.6A4.64,4.64,0,0,1,287,81.65a10.89,10.89,0,0,1,1.21,5.47c0,3.8-1.28,6.33-2.9,7.35v.13c1.19.77,1.9,2.82,2.26,5.82.51,4,.87,6.8,1.19,7.91h-2.06a63.89,63.89,0,0,1-1-6.89c-.46-4-1.28-5.47-3.09-5.6h-1.88v12.49h-2Zm2,13.13h2c2.13,0,3.47-2.18,3.47-5.47,0-3.72-1.44-5.35-3.54-5.39a4.63,4.63,0,0,0-2,.34Z" fill="#2f2e41"/><path d="M304.23,93.62c0,9.92-3.22,15.18-7.16,15.18s-6.93-5.9-6.93-14.63c0-9.15,3-15.13,7.16-15.13S304.23,85.07,304.23,93.62Zm-12,.47c0,6.16,1.78,11.67,4.92,11.67s4.94-5.43,4.94-12c0-5.73-1.61-11.72-4.92-11.72S292.27,87.76,292.27,94.09Z" fill="#2f2e41"/><path d="M306.81,79.89a15.82,15.82,0,0,1,4.24-.6,6.72,6.72,0,0,1,6.24,3.6c1.37,2.35,2.17,5.68,2.17,10.34s-.78,8.56-2.22,11.21a7.41,7.41,0,0,1-6.81,4.15,17,17,0,0,1-3.62-.35Zm2,25.49a7,7,0,0,0,2,.21c4.25,0,6.56-4.45,6.56-12.23,0-6.8-2-11.12-6.24-11.12a6.2,6.2,0,0,0-2.34.39Z" fill="#2f2e41"/><path d="M324,79.51V96.57c0,6.46,1.53,9.19,3.59,9.19,2.28,0,3.75-2.82,3.75-9.19V79.51h2v16.8c0,8.85-2.49,12.49-5.83,12.49-3.16,0-5.54-3.38-5.54-12.32v-17Z" fill="#2f2e41"/><path d="M347.62,107.39a6.19,6.19,0,0,1-4.08,1.37c-4.34,0-7.61-5.14-7.61-14.59,0-9,3.27-15.13,8.05-15.13a5.26,5.26,0,0,1,3.66,1.28l-.48,3a4.6,4.6,0,0,0-3.11-1.2c-3.62,0-6,4.32-6,11.89,0,7,2.18,11.58,5.93,11.58a5,5,0,0,0,3.24-1.19Z" fill="#2f2e41"/><path d="M353.68,82.67H349V79.51H360.4v3.16h-4.71v25.66h-2Z" fill="#2f2e41"/><path d="M361.7,103.8a5,5,0,0,0,3.57,1.88c2,0,3.23-2,3.23-4.92A6.2,6.2,0,0,0,365.59,95c-2.51-1.67-4.07-4.11-4.07-8.17,0-4.49,2-7.82,5-7.82a4.57,4.57,0,0,1,3.4,1.41l-.54,3a4.26,4.26,0,0,0-2.93-1.36c-2.11,0-2.91,2.35-2.91,4.31,0,2.7.94,4,3.07,5.56,2.61,1.89,3.93,4.24,3.93,8.47,0,4.45-1.76,8.3-5.39,8.3a5.44,5.44,0,0,1-3.94-1.84Z" fill="#2f2e41"/><rect x="215.81" y="122.23" width="86.31" height="1.25" fill="#0071f2"/><rect x="215.81" y="128.69" width="86.31" height="1.25" fill="#0071f2"/><rect x="215.81" y="135.68" width="86.31" height="1.25" fill="#0071f2"/><rect x="215.81" y="142.14" width="86.31" height="1.25" fill="#0071f2"/><rect x="215.81" y="147.83" width="86.31" height="1.25" fill="#0071f2"/><rect x="340.62" y="144.65" width="37.61" height="50.88" fill="#0071f2"/><polygon points="340.62 144.65 339.11 137.94 378.23 137.94 378.23 144.65 340.62 144.65" fill="#0071f2"/><polygon points="340.62 144.65 339.11 137.94 378.23 137.94 378.23 144.65 340.62 144.65" fill="#fff" opacity="0.22"/><polygon points="378.23 195.53 382.6 195.53 382.6 145.83 378.23 144.65 378.23 195.53" fill="#0071f2"/><polygon points="378.23 195.53 382.6 195.53 382.6 145.83 378.23 144.65 378.23 195.53" fill="#0071f2"/><polygon points="378.23 195.53 382.6 195.53 382.6 145.83 378.23 144.65 378.23 195.53" opacity="0.3"/><polygon points="340.62 165.31 340.62 176.39 378.23 160.1 378.23 150.03 340.62 165.31" fill="#fff" opacity="0.3"/><polygon points="340.62 184.62 340.62 179.58 378.23 163.21 378.23 168.26 340.62 184.62" fill="#fff" opacity="0.3"/><ellipse cx="351.78" cy="153.06" rx="7.64" ry="4.6" transform="translate(-29.96 114.99) rotate(-17.82)" fill="#fff" opacity="0.3"/><rect x="342.93" y="187.48" width="8.85" height="5.86" fill="#fff" opacity="0.3"/><rect x="353.6" y="187.48" width="22.37" height="5.86" fill="#fff" opacity="0.3"/><path d="M459,158.53v31.88a3.29,3.29,0,0,1-3.29,3.29h-16a3.28,3.28,0,0,1-3.28-3.29v-32a4.48,4.48,0,0,1,.59-2.23l3.3-5.81a7.34,7.34,0,0,0,1-3.62V135.59h13.23v11a7.26,7.26,0,0,0,.79,3.33l3.1,6.09A5.59,5.59,0,0,1,459,158.53Z" fill="#0071f2"/><path d="M459,171.57v18.84a3.29,3.29,0,0,1-3.29,3.29h-16a3.28,3.28,0,0,1-3.28-3.29v-2.79C441.78,187.62,454.31,186,459,171.57Z" fill="#fff" opacity="0.3"/><ellipse cx="447.78" cy="167.98" rx="8.2" ry="12.47" opacity="0.3"/><rect x="342.93" y="200.3" width="39.6" height="11.31" fill="#0071f2"/><rect x="427.63" y="200.3" width="39.6" height="11.31" fill="#0071f2"/><rect x="510.79" y="200.14" width="39.6" height="11.31" fill="#0071f2"/><g opacity="0.31"><rect x="342.93" y="200.3" width="39.6" height="11.31" fill="#fff"/><rect x="427.63" y="200.3" width="39.6" height="11.31" fill="#fff"/><rect x="510.79" y="200.14" width="39.6" height="11.31" fill="#fff"/></g><rect x="439.5" y="132.08" width="16.4" height="4.85" rx="1.94" fill="#0071f2"/><rect x="439.5" y="132.08" width="16.4" height="4.85" rx="1.94" opacity="0.3"/><path d="M551.49,154.25h-4v-5H512.59v5h-4a3,3,0,0,0-3,3v32.5a3,3,0,0,0,3,3h42.87a3,3,0,0,0,3-3v-32.5A3,3,0,0,0,551.49,154.25Z" fill="#0071f2"/><rect x="510.25" y="145.62" width="39.6" height="7.21" fill="#0071f2"/><rect x="510.25" y="145.62" width="39.6" height="7.21" opacity="0.3"/><path d="M510.79,161.13v22.45a6,6,0,0,0,6,6h27.42a6,6,0,0,0,6-6.15l-.47-23.68s-11.62,5.31-18.65,1.35c0,0-4.83-3.22-9.58.27a10.36,10.36,0,0,1-4.41,1.9A6.3,6.3,0,0,1,510.79,161.13Z" fill="#fff" opacity="0.3"/><ellipse cx="530.05" cy="173.84" rx="17.94" ry="7.85" fill="#fff" opacity="0.3"/><path d="M676.21,646.2s2.63,12.29-3.27,12.83H593.35a10.24,10.24,0,0,1-9.87-13.12l.08-.26Z" fill="#e6e7e8"/><path d="M636.75,613.62s-49.77,18.71-53.19,32a4,4,0,0,0,2.37,4.63c3.24,1.39,11,3.06,29.37,2.33h51.47s12.07,2.14,9.92-16.09L674,613.68Z" fill="#0071f2"/><path d="M636.75,613.62s-49.77,18.71-53.19,32a4,4,0,0,0,2.37,4.63c3.24,1.39,11,3.06,29.37,2.33h51.47s12.07,2.14,9.92-16.09L674,613.68Z" opacity="0.2"/><polygon points="641.98 316.84 641.98 307.15 658.58 292.22 665.92 298.14 667.26 311.72 641.98 316.84" fill="#f7a48b"/><path d="M635.7,322.52c-5.33,2.08-18.34,9.11-22,29l-12.15,39.19L555.78,393v17.88h78.64l3.58-5.47,1.79,40.93,81.94-9.83s4.29-26,6.44-31.37c0,0-9.65-69.05-37.3-87.08a22.26,22.26,0,0,0-16.89-2.9c-6.06,1.32-17.34,3.59-34.73,6.4A17.9,17.9,0,0,0,635.7,322.52Z" fill="#0071f2"/><path d="M555.78,393v5.56s39.89-6.16,55.68,0c0,0,0-6.47-9.92-7.81Z" opacity="0.2"/><path d="M478.2,630s-5.45,20.57,14,23.53a29.65,29.65,0,0,0,4.42.28h16.63a34,34,0,0,0,9.52-1.33c8.56-2.5,22.51-8.9,10.31-22.33Z" fill="#2f2e41"/><path d="M478.2,630s-5.45,20.57,14,23.53a29.65,29.65,0,0,0,4.42.28h16.63a34,34,0,0,0,9.52-1.33c8.56-2.5,22.51-8.9,10.31-22.33Z" opacity="0.2"/><path d="M478.2,630s-4.32,20.58,31.2,18.56c0,0,32.81-1.52,23.67-18.41l-10.76-11.85-12.51-.92L486,623.73S483.33,622.72,478.2,630Z" fill="#2f2e41"/><path d="M478.2,604.41V630s34-18.91,54.66.3c.12.1.29,0,.21-.15a124.27,124.27,0,0,0-7.73-10.84,123,123,0,0,0-10.09-11.17Z" fill="#0071f2"/><path d="M412.49,613.68,391.7,620.5s7.75,3.85,10.4,16H464V621.18a16.31,16.31,0,0,0-2.33-8.42l-2.41-4-1.86-4.33Z" fill="#0071f2"/><path d="M373.52,634.46h0a3.15,3.15,0,0,0,3.29-2.92l11-158.75-8.55-.62-8.73,159A3.13,3.13,0,0,0,373.52,634.46Z" fill="#bcbec0"/><path d="M557.94,639.38h0a3.14,3.14,0,0,1-3.29-2.92l-11-158.75,8.55-.61,8.73,159A3.13,3.13,0,0,1,557.94,639.38Z" fill="#bcbec0"/><path d="M552.28,477.09h-173V340.45a26.14,26.14,0,0,1,26.15-26.14H550.28L552,457.1Z" fill="#d1d3d4"/><path d="M552,457.1l-8.39,2.14-140-39.07c-15-14.91,7.35-105.86,7.35-105.86h139.3Z" opacity="0.2"/><path d="M491.54,410.88h7.07L518,330.11V300.65s-10.65-3.91-14-4.92l-16.49,42.5Z" fill="#0071f2"/><path d="M491.54,410.88h7.07L518,330.11V300.65s-10.65-3.91-14-4.92l-16.49,42.5Z" opacity="0.2"/><path d="M361.3,638.51s-11.84,12.68-36.15,5.52a21.52,21.52,0,0,1-8.36-4.63c-3.77-3.39-9-9.65-12.51-20.08l-4.46,20.31-6,.37L290,609a46,46,0,0,0-1.53-7.54c-1.48-5.05-3.54-15.75,4-20.36l13,11.55s2.05,1.5,3.35,11.56c0,0-1.11,19.57,13.05,22.36a16.92,16.92,0,0,0,14-4.47,40,40,0,0,0,16.81,6.66,18.79,18.79,0,0,1,7,2.34C362.37,632.78,364.67,635.33,361.3,638.51Z" fill="#0071f2"/><path d="M335.77,622.12a16.92,16.92,0,0,1-14,4.47c-14.16-2.79-13.05-22.36-13.05-22.36-1.3-10.06-3.35-11.56-3.35-11.56l-13-11.55s16.88-2.86,27.89-2.72C320.3,578.4,323.54,616.41,335.77,622.12Z" fill="#f9b499"/><path d="M321.63,588.68l-1.33-10.29a199.24,199.24,0,0,0-27.89,2.73S313.45,584.69,321.63,588.68Z" fill="#f7a48b"/><path d="M233.68,587v11.35H230s-6.09,45.44-27.87,25.77c0,0,9.62-17.79,8.68-35.95Z" fill="#f9b499"/><path d="M202.1,624.16s-16.39,19.9-10.3,21.07c0,0,5.38,3,27.16,2.58,0,0,13.12-2.06,13.35-11.8l1.37-37.62H230S223.65,643.83,202.1,624.16Z" fill="#0071f2"/><path d="M323.56,578.37c-12.77-.2-34.05,3.09-42.95,4.57a4.34,4.34,0,0,1-4.95-3.39l-18.24-87c-10.32-43.61-15.23-94-15.23-94L240.9,436.8l.33,13.41h0l3.24,134.12a2.21,2.21,0,0,1-2.09,2.25l-40.81,2.09a2.17,2.17,0,0,1-2.3-2.06c-.07-1.24-.17-2.81-.29-4.68-1.88-28.1-9.95-122.7-9.95-122.7-4.9-54.45.8-104.88.8-104.88l9.26-14.55h77.17l4.64,14.55,15,81.15,29.86,140.18A2.22,2.22,0,0,1,323.56,578.37Z" fill="#2f2e41"/><path d="M231.23,339.81l-.2,4.59s12.3,3.22,29.32,1l0-5.63Z" opacity="0.2"/><path d="M215.13,230.44l-5.35,1.07S233.5,258.92,233,301.34l-1.74,38.47h29.14V297.12s4.48-41.67-8.69-66.68l-4.92-1.12Z" fill="#d1d3d4"/><path d="M209.78,231.51s-14-1-24,6.33l17.92,20.81,11.41-4.74-5.35,9.75s18.69,20.55,23.18,34.52C233,298.18,234,262.08,209.78,231.51Z" fill="#0071f2"/><path d="M209.78,231.51s-14-1-24,6.33l17.92,20.81,11.41-4.74-5.35,9.75s18.69,20.55,23.18,34.52C233,298.18,234,262.08,209.78,231.51Z" opacity="0.2"/><path d="M339.88,247.86c-15.1,8.57-30.65,31.65-33.5,36a1.55,1.55,0,0,1-1.32.71h0a1.58,1.58,0,0,1-1.58-1.51c-.46-10-9.4-26.34-9.68-26.86a127.87,127.87,0,0,1,11.43,14.51s26.53-23.73,31.66-25.94Z" opacity="0.2"/><path d="M339.88,247.86l12-12.81s6.28-5.77,11.92-6.41l13-1.44a1.8,1.8,0,0,1,2,1.79h0a1.8,1.8,0,0,1-1.36,1.75l-13,3.29s6.41,11.27,3.59,18.7c0,0-5.64,8.33-6,2.57,0,0-6,6.28-9.11,6Z" fill="#f9b499"/><path d="M351.79,239.15A59.17,59.17,0,0,1,364.47,234l13-3.29s1.87-.37,1-2.77a1.93,1.93,0,0,0-1.68-.77s1.11,2.52-4.15,3.2C372.67,230.4,356.78,231.72,351.79,239.15Z" fill="#f7a48b"/><path d="M353.7,250.63a7.34,7.34,0,0,0,3.63-.93,10.15,10.15,0,0,0,2.73-2.49,44.25,44.25,0,0,1,5.82-5.36A44,44,0,0,1,361,248c-.47.45-.88,1-1.44,1.45a6.12,6.12,0,0,1-1.82,1.09A5.38,5.38,0,0,1,353.7,250.63Z" fill="#f7a48b"/><path d="M366.46,249.46a5.26,5.26,0,0,1-1.52,2.6,3.59,3.59,0,0,1-1.44.83,3.06,3.06,0,0,1-1.77-.09,3.1,3.1,0,0,1-2-2.68,4.17,4.17,0,0,1,1.08-2.85,7,7,0,0,0-.11,2.71,2.41,2.41,0,0,0,1.43,1.65,2.37,2.37,0,0,0,2.17-.35A11,11,0,0,0,366.46,249.46Z" fill="#f7a48b"/><path d="M357.45,236.43s10-2.81,11.43,1.79c0,0,.54,1.67-3,2.64a12.82,12.82,0,0,0-6.53,5.44" fill="#f9b499"/><path d="M231.23,339.81,233,298.17s19.78-5.38,27.41,1.33v40.31Z" opacity="0.2"/><path d="M244.47,584.34a2.21,2.21,0,0,1-2.09,2.25l-40.81,2.09a2.17,2.17,0,0,1-2.3-2.06c-.07-1.24-.17-2.81-.29-4.68,5.61,1.91,18.23,5.12,29.4.28a11.91,11.91,0,0,0,7.13-10.39l5.72-121.61Z" opacity="0.2"/><path d="M323.56,578.37c-12.77-.2-34.05,3.09-42.95,4.57a4.34,4.34,0,0,1-4.95-3.39l-18.24-87c-10.32-43.61-15.23-94-15.23-94l39,152.82a22.27,22.27,0,0,0,17.56,16.53l27,7.79A2.22,2.22,0,0,1,323.56,578.37Z" opacity="0.2"/><path d="M308.86,304.41s20.87-27.2,39.28-38.45C348.14,266,329.47,289,308.86,304.41Z" fill="#fff" opacity="0.4"/><polygon points="271.23 323.91 271.23 328.86 282.54 330.49 282.54 325.15 271.23 323.91" opacity="0.2"/><path d="M467.94,292.53a26.61,26.61,0,0,0-7.85,0l-2.28,118.35h33.73L504,295.73a22.63,22.63,0,0,0-6-1.48Z" fill="#d1d3d4"/><polygon points="423.21 405.39 423.21 410.88 457.81 410.88 458.07 397.15 423.21 405.39" fill="#0071f2"/><polygon points="423.21 405.39 423.21 410.88 457.81 410.88 458.07 397.15 423.21 405.39" opacity="0.2"/><path d="M531.83,410.88H498.61L518,330.11V300.65s29.1,19.64,35.64,41.94c0,0,14.31,39.53,0,52.86Z" fill="#0071f2"/><path d="M546.6,481.1c-.63,3.7-1.33,7.3-2.05,10.65-2.19,10.23-4.48,17.95-4.48,17.95l-22.62,98.64-9.52-1-35.72-3.57,15.27-127.59-30.05-12.06c-7.84-4.23-16.79,2.11-16.79,2.11-14.07,3.92-6.44,22.92-6.44,22.92l23.23,115.22-21,4.33-24,4.94L394.69,558l-17.28-67.09-3.23-12.55a22.64,22.64,0,0,1-.85-6.79c.33-13.76,12.54-26.8,21.62-34.62a102.92,102.92,0,0,1,9.7-7.45H534.34l10.82,16.23,1.25,1.87C549.7,455,548.67,468.55,546.6,481.1Z" fill="#2f2e41"/><path d="M545.16,445.7c-6.27,1.85-10.24-.46-12.24-2.31a32.33,32.33,0,0,0-6.82-4.92c-9-4.67-15.77-5.06-19.33-4.79a53.28,53.28,0,0,1-8.38,0c-48.6-3.88-52.42.64-52.42.64a113.28,113.28,0,0,1-51,2.63,102.92,102.92,0,0,1,9.7-7.45H534.34Z" opacity="0.2"/><path d="M472.21,603.81l15.27-127.59-30.05-12.06c-7.84-4.23-16.79,2.11-16.79,2.11-14.07,3.92-6.44,22.92-6.44,22.92l23.23,115.22-21,4.33s-3.48-89.21-8.58-116.68l-4.67-17.27s5.52-24.73,27.67-22.38c0,0,21.75-.39,38.63,9,0,0,16.09-.38,11.38,28.27,0,0-16.55,100.32,7,117.67Z" opacity="0.2"/><path d="M546.6,481.1c-.63,3.7-1.33,7.3-2.05,10.65-10.78-6.61-30.71-13-30.71-13,19.63-4.71,32.75,2.39,32.75,2.39Z" opacity="0.2"/><path d="M413.29,472.74a86.89,86.89,0,0,1-35.88,18.14l-3.23-12.55a22.64,22.64,0,0,1-.85-6.79A228.39,228.39,0,0,0,413.29,472.74Z" opacity="0.2"/><path d="M457.43,604.41l1.86,4.33s-11,10.63-25.37.52Z" fill="#f9b499"/><path d="M391.7,620.5s-21.93,6.52-13.93,19.27c0,0,2.08,5.33,30.53,3.85l53.66.26a12.55,12.55,0,0,0,2.07-7.37H402.1S400.6,626.43,391.7,620.5Z" fill="#2f2e41"/><polygon points="527.59 290.23 594.48 293.75 540.5 392.03 478.89 384.7 527.59 290.23" fill="#0071f2"/><polygon points="527.59 290.23 594.48 293.75 540.5 392.03 478.89 384.7 527.59 290.23" fill="#fff" opacity="0.41"/><polygon points="596.39 301.68 594.48 293.75 540.5 392.03 478.89 384.7 486.65 390.41 545.16 397.32 596.39 301.68" fill="#0071f2"/><polygon points="596.39 301.68 594.48 293.75 540.5 392.03 478.89 384.7 486.65 390.41 545.16 397.32 596.39 301.68" opacity="0.3"/><polygon points="529.31 297.49 488.25 379.18 537.29 385.52 581.33 300.65 529.31 297.49" fill="#fff" opacity="0.41"/><path d="M519.68,340s1.07-5.19,6.43-3.76c4.13,1.1,14.18,3.4,18.59,4.4a1.8,1.8,0,0,1,1.24,2.5l-11.78,26.17s-2.3,4-14.48.92c0,0-12.51-2.13-8.68-10.91Z" fill="#fff" opacity="0.41"/><path d="M524.53,336a5.89,5.89,0,0,1,.13-3.07,2.83,2.83,0,0,1,3.13-1.8c3.69.57,12.53,2,17.68,3.21a3,3,0,0,1,2,4.15,9,9,0,0,1-2,2.54Z" fill="#0071f2"/><ellipse cx="542.59" cy="315.64" rx="17.49" ry="10.04" transform="translate(-49.96 108.48) rotate(-10.92)" fill="#0071f2"/><path d="M635.7,322.52s2.95-9.89,21.17-13.6c0,0,15.21-2.58,24.59,5.7a26.41,26.41,0,0,0-7.48.54s-22.18,4.59-34.73,6.4A29.84,29.84,0,0,0,635.7,322.52Z" fill="#0071f2"/><path d="M635.7,322.52s2.95-9.89,21.17-13.6c0,0,15.21-2.58,24.59,5.7a26.41,26.41,0,0,0-7.48.54s-22.18,4.59-34.73,6.4A29.84,29.84,0,0,0,635.7,322.52Z" fill="#fff" opacity="0.41"/><path d="M647.31,377.21,638,405.41l1.79,40.93,81.94-9.83s3.44-22.94,6.44-31.37a215.13,215.13,0,0,0-7-32.29s3.53,27.86.4,42a10.86,10.86,0,0,1-7.63,8l-56.39,16.32Z" opacity="0.2"/><path d="M639.79,446.34s-77.74,10.36-84,20c0,0-13,4.61-8,38.57l15.54,108.77,53.24,1.9L603.17,509.94l9.64,1.26,14.26,102.48h52.82L668.15,511.62s42.76-4.09,52.41-27.2c0,0-3.59-10.65,0-34.24l1.17-13.67Z" fill="#2f2e41"/><path d="M627.07,613.68l7.12-.06-4.71-83.3a7.78,7.78,0,0,1,5.38-7.84C640,520.81,650,519.2,669,519.31l-.89-7.69-55.34-.42Z" opacity="0.2"/><path d="M590.89,614.66l25.7.92L603.17,509.94s-6.15-2.52-10.41,0C592.76,509.94,605.27,580.82,590.89,614.66Z" opacity="0.2"/><path d="M582.36,520.1a11.23,11.23,0,0,1-4.2,0,6.23,6.23,0,0,1-4.69-7.94c1.61-5.55,6.47-14.6,21-17.14l122.93,5.19s30.15-1.67,26.52,11c0,0-.2,3.07-7.45,7.44a18.62,18.62,0,0,0-14.75-5.28l-118-7.5S587.16,500.47,582.36,520.1Z" fill="#bcbec0"/><path d="M720.56,484.42s1.16,20.76,27.83,33.87a5.22,5.22,0,0,0,6.82-2.06h0A5.21,5.21,0,0,0,753.1,509c-7.93-4.19-22.52-15-23.2-38.47,0,0,2.82-75.13,26.06-104.8,0,0,8.94-11.2,21.8-12h4.79a6.3,6.3,0,0,0,6.3-6.3h0a6.31,6.31,0,0,0-7-6.26,53.18,53.18,0,0,0-6.69,1.12,54.92,54.92,0,0,0-37.42,31.09,140.14,140.14,0,0,0-9.61,31.79s-7.45,25.57-7.61,45C720.56,450.18,716.79,476.08,720.56,484.42Z" fill="#d1d3d4"/><path d="M515,646.2s-2.07,11.49,12.4,12.83h78.26a6,6,0,0,0,6-5.42,25.84,25.84,0,0,0-.61-7.18Z" fill="#e6e7e8"/><path d="M215.13,230.44s8.86-3.79,9.2-16.38l3.58-2.24,15.58,12.59v4.91h3.27S250,239.88,241,244.77C241,244.77,231.44,242.56,215.13,230.44Z" fill="#f9b499"/><path d="M243.36,222l.13,7.33s-7.57-1-12.26-13.61Z" fill="#f7a48b"/><ellipse cx="246.76" cy="196.62" rx="22.43" ry="28.09" fill="#f9b499"/><path d="M269.19,192s-1.55,4.47-15-5.67L245,179.11s-10.05,18.59-16.9,20a7.22,7.22,0,0,0-5.31-2.45c-3.54,0-6.55,2.8-7.63,6.7,0,0-.73.65-1.61-2.57.2,1.39,2.7,21.24-13.65,24,0,0-5.73,1-5.07-5.78,0,0-5.46,4.5-10.47,2.39a3.84,3.84,0,0,1-1.72-5.83,8,8,0,0,1,2.07-1.84s6.82-4.35,2.64-17c0,0-8.9-31.6,11.18-33.79,0,0,10.76-1.1,16.63,1.75l3,.66s16.72-11.42,35.21-2.62C253.34,162.62,280.86,173,269.19,192Z" fill="#2f2e41"/><path d="M199.86,224.7s-5.73,1.06-5.07-5.78c0,0-5.46,4.51-10.47,2.39a4,4,0,0,1-2.29-2.49,12.25,12.25,0,0,0,1.2-.43,24.59,24.59,0,0,0,15.27-26c-1.1-8.8-.42-24.9,12.6-23.86,0,0-.18,23.55,2.41,32.27v0a.11.11,0,0,0,0,0h0C213.78,202.76,216,222,199.86,224.7Z" opacity="0.2"/><path d="M211.31,183.29s-4.25-19.8,3.82-21.13c0,0,3.23-.66,3,3.08A27.68,27.68,0,0,0,211.31,183.29Z" fill="#0071f2"/><path d="M230.82,206.49c0,5.46-3.6,9.89-8.06,9.89s-8.07-4.43-8.07-9.89a11.35,11.35,0,0,1,.44-3.17c1.08-3.9,4.09-6.7,7.63-6.7a7.22,7.22,0,0,1,5.31,2.45A10.87,10.87,0,0,1,230.82,206.49Z" fill="#f9b499"/><path d="M233,298.17l-.21,5.13-1.47,35.35-.7,15.71H189.83c.28-13.79,9.12-31.25,9.12-31.25,8.05-16.89-7-42.36-7-42.36l-16.36,15L192.52,320a5.13,5.13,0,0,1,.37,5.22c-4.65,9.27-13.59,11.9-17.85,12.63a5.16,5.16,0,0,1-4.18-1.16c-16.2-13.56-24.19-38.51-24.19-38.51-6.17-12.06,7-27.88,7-27.88,13.6-19.36,25.28-28.13,30-31.16,1-.66,1.72-1,2-1.21l.16-.09,17.92,20.82,11.41-4.74-5.34,9.75C228.72,285,232.72,297.39,233,298.14Z" fill="#0071f2"/><path d="M233,298.17l-.21,5.13c-6.21-15.35-25-38.45-25-38.45l2.08-5.8-7.67,2-18.5-21.91,2-1.21.16-.09,17.92,20.82,11.41-4.74-5.34,9.75C228.72,285,232.72,297.39,233,298.14Z" fill="#fff" opacity="0.4"/><path d="M175.62,295.76l-8.1-5.67s11.76,1.45,24.46-9.34Z" opacity="0.2"/><path d="M181.71,335.8a12.59,12.59,0,0,0,7.28,5.61s2,1.81-.21,2.32a12.22,12.22,0,0,0-2.88,1c-2.19,1.13-4.15,3.05,4.42,4.2a99.34,99.34,0,0,1,7-22.4h-5.19A22.65,22.65,0,0,1,181.71,335.8Z" fill="#f9b499"/><polygon points="203.39 322.54 200.37 328.86 220.14 326.56 222.76 321.44 203.39 322.54" opacity="0.2"/><path d="M468.65,274l-.71,12.37s-3.11,19.33,13,19.28c0,0,8.87,1.34,17.18-9.38l-1.87-18s2.14,0,3.75-2.95l-10.46-7Z" fill="#f9b499"/><path d="M468.41,278.3l-.47,8.1a28.85,28.85,0,0,0,0,6.13s8-2.27,14.67-10.85l-8.91-5.36Z" fill="#f7a48b"/><ellipse cx="480.96" cy="255.7" rx="27.78" ry="21.4" transform="translate(57.44 598.25) rotate(-66.96)" fill="#f9b499"/><ellipse cx="501.23" cy="271.23" rx="7.1" ry="6.03" transform="translate(15.72 569.69) rotate(-60)" fill="#f9b499"/><path d="M515,259.33a45.88,45.88,0,0,1-7.69,9.08s-2.18-5.7-8.67-3c0,0,2.9-11.11-5.33-14.18,0,0-4,0-5-4.93,0,0-10.34,9.6-14.7-.47,0,0-10.61,3.73-14.14-2.48-1-1.74-1.43-4.25-.91-7.86,0,0-.23-17.86,28.67-13.63,0,0,8.7-1.18,16.69,10.58C503.87,232.49,526.39,240.84,515,259.33Z" fill="#2f2e41"/><path d="M515,259.33a45.88,45.88,0,0,1-7.69,9.08s-2.18-5.7-8.67-3c0,0,2.9-11.11-5.33-14.18,0,0-4,0-5-4.93,0,0-10.34,9.6-14.7-.47,0,0-10.61,3.73-14.14-2.48,0,0,9.43-17.49,26.12-12.32,0,0-2.11-6.58,4.7-4.23,0,0,15.33,6.1,8.38,13.62,0,0-6.27,6.12-1.8,8.94,0,0,5.38,5.64,7.15,2.11,0,0-2.21-10.81,4.37-5.64A20.37,20.37,0,0,1,515,259.33Z" opacity="0.2"/><path d="M487.48,394.4l-56.56,14c-22.82,4.3-21.56-7.62-21.56-7.62-6.34-54.79,10.15-85.22,10.15-85.22,2.65-12.78,12.77-18.54,22.25-21.08A61.82,61.82,0,0,1,460,292.52h.1L458.67,366,481,363.19Z" fill="#0071f2"/><path d="M460,292.52,458.67,366l-8.22,1.78L447,333.27l5.71-5.83-7.62-4.32-3.36-28.69A61.82,61.82,0,0,1,460,292.52Z" opacity="0.2"/><path d="M436.5,334.79l1,35.25s24-5.07,43.44-6.85l1.17,5.59s-37.26.5-47.91,4.81Z" opacity="0.2"/><path d="M481.42,365.35s12-13.15,25.27-19.49a40.09,40.09,0,0,0,4.9-2.78c2.26-1.52,5.67-3.27,6.62-.86,0,0,2.85,2.62-11.28,12,0,0,7.41,2.87,3.7,17,0,0,.63,10.29-4,6.19,0,0-1.12-4.56-4.23-1.75a7.63,7.63,0,0,0-1.6,2.18c-1.37,2.66-6.27,10.93-14.48,11.17Z" fill="#f9b499"/><path d="M501.23,365a7.52,7.52,0,0,1,3.06.06,9.21,9.21,0,0,1,2.9,1.13,7.55,7.55,0,0,1,2.3,2.13,6.28,6.28,0,0,1,1.14,2.86,19.05,19.05,0,0,0-1.88-2.23,12.5,12.5,0,0,0-2.21-1.7A24.16,24.16,0,0,0,501.23,365Z" fill="#f7a48b"/><path d="M505.07,358.77a4.22,4.22,0,0,1,2.2-.2,5.4,5.4,0,0,1,2.1.81A5.09,5.09,0,0,1,511,361a4.52,4.52,0,0,1,.7,2.09c-.54-.52-1-1-1.46-1.48a9.85,9.85,0,0,0-1.5-1.18A15.29,15.29,0,0,0,505.07,358.77Z" fill="#f7a48b"/><path d="M574,362.72s-2.51,15.2-13.59,21.41a4.24,4.24,0,0,1-2.77.52c-3.69-.61-12-4.15-2.72-24.35a24.57,24.57,0,0,1-4.61-4.54c-1.32-1.91-1.53-3.79,2.2-4.2,0,0-8.56-10.55,5.48-3.75,0,0-7.85-11.19-3.82-10.09a4.52,4.52,0,0,1,1.88.53,32.27,32.27,0,0,1,7.84,5.43c0,.05.15,0,.1-.08-1.35-1.91-6-8.87-3.17-10.57a1.46,1.46,0,0,1,1.73.19L574,343.41S579.66,349.12,574,362.72Z" fill="#f9b499"/><path d="M560.38,384.13a4.24,4.24,0,0,1-2.77.52c-3.69-.61-12-4.15-2.72-24.35a24.57,24.57,0,0,1-4.61-4.54l8,4.29S551.64,379,560.38,384.13Z" fill="#f7a48b"/><path d="M564,343.6c-1.35-1.91-6-8.87-3.17-10.57a1.46,1.46,0,0,1,1.73.19S561.06,336.55,564,343.6Z" fill="#f7a48b"/><path d="M565.08,351.56c-3,.74-7.12-3.75-7.12-3.75s-7.85-11.19-3.82-10.09a4.52,4.52,0,0,1,1.88.53c-.14,3,5.5,8.28,5.5,8.28C567.25,351,565.08,351.56,565.08,351.56Z" fill="#f7a48b"/><ellipse cx="641.32" cy="278.87" rx="31.91" ry="22.07" transform="translate(245.27 855.24) rotate(-79.01)" fill="#f9b499"/><path d="M682.27,280a45.15,45.15,0,0,1-7.37,14.89v0a30,30,0,0,1-9.79,8.45s-3-1.57-1.72-5.83l-3-15.13s-11.24,10.72-11.38,1.2c0,0,.3-11-7.64-8.51,0,0-14.28,9.05-20.47-5.14,0,0-2.35,7.83-2,13.23a.07.07,0,0,0-.05,0,21.81,21.81,0,0,1-4-3,4.89,4.89,0,0,1-.39-.4,13.5,13.5,0,0,1-3-4.52c-1.77-4.6-.32-10.91,11.94-18,0,0-6.77-.87-2.74-5.33,0,0,27.11-24.08,39.07-2.31C659.62,249.54,690.19,256.75,682.27,280Z" fill="#2f2e41"/><path d="M671,274.34a26.29,26.29,0,0,1,3.88,20.51v0a30,30,0,0,1-9.79,8.45s-3-1.57-1.72-5.83l-3-15.13s-11.24,10.72-11.38,1.2c0,0,.3-11-7.64-8.51,0,0-14.28,9.05-20.47-5.14,0,0-2.35,7.83-2,13.23a.07.07,0,0,0-.05,0,13.8,13.8,0,0,1-4-3,4.89,4.89,0,0,1-.39-.4,19.07,19.07,0,0,1-3-4.52s.84-10.37,24.35-15.56c0,0,2.64-1,0-4.62,0,0-5.64-7.92,11.45-2.15,0,0,.51-4.25-2.8-5.59,0,0,9.08.82,9.94,7.74,0,0,22.21.44,23.07,15.58C677.36,270.59,679.38,273.62,671,274.34Z" opacity="0.2"/><ellipse cx="663.38" cy="289.52" rx="6.92" ry="7.97" fill="#f9b499"/><path d="M570.41,613.93s-70.12,28.75-52.7,34.75c0,0,8.94,5.34,47,3.55l37,.35a11.51,11.51,0,0,0,6.07-1.56,5.82,5.82,0,0,0,3.2-4.59l-1.88-31.1Z" fill="#0071f2"/><path d="M570.7,663a2.88,2.88,0,0,0,3.58-2.51l14.21-140.9s.54-9.07,9.65-8.42l125.29,7.88s10-2.14,13.94,13.59l35.2,127.9a3.56,3.56,0,0,0,4.23,2.52h0a3.56,3.56,0,0,0,2.61-4.45L742,528.38s-3-15.38-20.29-15l-118-7.5s-20.43-5.73-22.22,20.19l-13,133.9A2.89,2.89,0,0,0,570.7,663Z" fill="#d1d3d4"/><rect x="197.34" y="410.88" width="518.36" height="18.59" fill="#939598"/><polygon points="718.19 656.3 678.22 429.46 698.21 429.46 724.6 656.3 718.19 656.3" fill="#a7a9ac"/><polygon points="201.11 656.3 241.08 429.46 221.1 429.46 194.7 656.3 201.11 656.3" fill="#a7a9ac"/><path d="M355.29,263.76S311.6,320.22,298.5,313l-17.67-13.78s1.58,38.55,3.89,55.18H260.31l.06-14.55V297.12s4.63-40.32-8.7-66.68c0,0,10.34-.66,14.51,2.13a140.3,140.3,0,0,1,27.61,23.6v0a127.87,127.87,0,0,1,11.43,14.51s26.53-23.73,31.66-25.94l3,3.1Z" fill="#0071f2"/><path d="M251.68,230.44s9-.51,14.49,2.13l5.8,17.65h-9.23L273,260.76s-2.37,25-12.65,36.36C260.37,297.12,265.12,256.24,251.68,230.44Z" fill="#0071f2"/><path d="M251.68,230.44s9-.51,14.49,2.13l5.8,17.65h-9.23L273,260.76s-2.37,25-12.65,36.36C260.37,297.12,265.12,256.24,251.68,230.44Z" opacity="0.2"/><path d="M260.37,297.12s13.91-10.21,16.86-39.16L273,252.33l5.29-1.34-8.19-15.78-3.95-2.64,5.8,17.65h-9.23L273,260.76S269.79,288.3,260.37,297.12Z" fill="#fff" opacity="0.4"/></svg>